<?xml version="1.0" standalone="no"?>
<!DOCTYPE svg PUBLIC "-//W3C//DTD SVG 20010904//EN"
 "http://www.w3.org/TR/2001/REC-SVG-20010904/DTD/svg10.dtd">
<svg version="1.0" xmlns="http://www.w3.org/2000/svg"
 width="1000.000000pt" height="1000.000000pt" viewBox="0 0 1000.000000 1000.000000"
 preserveAspectRatio="xMidYMid meet">

<g transform="translate(0.000000,1000.000000) scale(0.100000,-0.100000)"
fill="#000000" stroke="none">
<path d="M4555 9739 c-1588 -129 -3007 -1028 -3787 -2399 -417 -732 -629
-1581 -604 -2420 14 -492 88 -910 241 -1365 304 -907 878 -1695 1657 -2276
642 -479 1383 -785 2190 -904 393 -57 903 -61 1318 -9 724 90 1438 357 2055
767 518 344 957 779 1304 1292 432 638 681 1313 778 2105 22 182 25 787 5 975
-119 1115 -604 2112 -1403 2890 -808 786 -1850 1255 -2993 1345 -148 12 -614
11 -761 -1z m760 -129 c995 -85 1897 -452 2645 -1076 133 -111 393 -366 523
-514 515 -586 874 -1313 1032 -2092 58 -285 85 -562 85 -888 0 -254 -9 -393
-41 -623 -117 -864 -500 -1701 -1076 -2357 -130 -148 -390 -403 -523 -514
-755 -630 -1673 -1000 -2670 -1077 -200 -15 -676 -6 -865 16 -785 92 -1478
349 -2126 787 -600 405 -1120 979 -1463 1616 -679 1262 -725 2755 -125 4054
435 940 1189 1714 2129 2184 566 283 1107 430 1785 487 97 8 581 6 690 -3z"/>
<path d="M2260 5842 l-1105 -517 -3 -216 -2 -216 1102 -457 c607 -252 1109
-460 1116 -463 9 -4 12 50 12 250 l0 256 -52 19 c-29 11 -434 156 -901 323
-466 166 -844 306 -840 310 5 4 408 181 898 393 l890 385 3 225 c1 125 -1 226
-5 225 -5 0 -505 -233 -1113 -517z"/>
<path d="M6352 6135 l3 -226 864 -376 c614 -268 858 -379 845 -384 -48 -18
-1634 -639 -1671 -654 l-43 -17 0 -254 c0 -140 1 -254 3 -254 1 0 493 218
1092 484 l1090 485 0 203 0 203 -1085 507 c-597 279 -1088 507 -1093 507 -4 1
-6 -100 -5 -224z"/>
</g>
</svg>
